<svg width="221" height="43" viewBox="0 0 221 43" fill="none" xmlns="http://www.w3.org/2000/svg">
<path fill-rule="evenodd" clip-rule="evenodd" d="M15.9928 13.5592C15.6612 13.6652 15.3037 13.9595 15.1573 14.2469C14.9905 14.5744 15.0001 14.1323 15.0001 21.5021C15.0001 28.0928 15.002 28.3128 15.0593 28.4971C15.2013 28.9534 15.571 29.3167 16.0293 29.4505C16.1811 29.4948 16.7179 29.5 21.0944 29.5C25.4709 29.5 26.0078 29.4948 26.1595 29.4505C26.6179 29.3167 26.9876 28.9534 27.1295 28.4971C27.1867 28.3135 27.1888 28.12 27.1888 22.9674C27.1888 19.3288 27.1784 17.5999 27.1561 17.54C27.1124 17.4223 23.2963 13.599 23.1659 13.5423C23.0816 13.5056 22.5081 13.4988 19.6187 13.5002C16.3645 13.5018 16.1621 13.505 15.9928 13.5592ZM22.5008 15.7147C22.5008 16.8817 22.506 17.0098 22.56 17.1835C22.702 17.6398 23.0717 18.0031 23.53 18.1369C23.6727 18.1785 23.9032 18.1864 24.9758 18.1864H26.2517L26.2436 23.2159C26.2355 28.2406 26.2355 28.2454 26.1711 28.3316C26.1357 28.3791 26.0678 28.4469 26.0204 28.4823C25.9341 28.5468 25.9337 28.5468 21.0944 28.5468C16.2552 28.5468 16.2548 28.5468 16.1685 28.4823C16.121 28.4469 16.0532 28.3791 16.0178 28.3316L15.9533 28.2453L15.9444 21.5829C15.9395 17.9186 15.9436 14.8752 15.9535 14.8198C15.9758 14.6945 16.1072 14.5348 16.233 14.48C16.3101 14.4465 16.9193 14.4383 19.4146 14.4373L22.5008 14.4361V15.7147ZM24.7434 17.2423C24.2921 17.2473 23.8775 17.2432 23.8222 17.2332C23.6935 17.2101 23.5357 17.0775 23.481 16.9466C23.4485 16.8687 23.4384 16.6389 23.4384 15.9765V15.1084L24.5012 16.1708L25.564 17.2332L24.7434 17.2423ZM18.0651 20.1789C17.8941 20.266 17.8285 20.3809 17.8285 20.5929C17.8285 20.8049 17.8941 20.9198 18.0651 21.0069C18.1649 21.0578 18.3741 21.0616 21.0944 21.0616C23.8147 21.0616 24.024 21.0578 24.1237 21.0069C24.2947 20.9198 24.3604 20.8049 24.3604 20.5929C24.3604 20.3809 24.2947 20.266 24.1237 20.1789C24.024 20.128 23.8147 20.1242 21.0944 20.1242C18.3741 20.1242 18.1649 20.128 18.0651 20.1789ZM18.0651 22.054C17.8941 22.1412 17.8285 22.2561 17.8285 22.4681C17.8285 22.6801 17.8941 22.795 18.0651 22.8821C18.1649 22.933 18.3741 22.9368 21.0944 22.9368C23.8147 22.9368 24.024 22.933 24.1237 22.8821C24.2947 22.795 24.3604 22.6801 24.3604 22.4681C24.3604 22.2561 24.2947 22.1412 24.1237 22.054C24.024 22.0032 23.8147 21.9994 21.0944 21.9994C18.3741 21.9994 18.1649 22.0032 18.0651 22.054ZM18.0651 23.9292C17.8941 24.0164 17.8285 24.1312 17.8285 24.3433C17.8285 24.5553 17.8941 24.6701 18.0651 24.7573C18.1649 24.8082 18.3741 24.812 21.0944 24.812C23.8147 24.812 24.024 24.8082 24.1237 24.7573C24.2947 24.6701 24.3604 24.5553 24.3604 24.3433C24.3604 24.1312 24.2947 24.0164 24.1237 23.9292C24.024 23.8783 23.8147 23.8746 21.0944 23.8746C18.3741 23.8746 18.1649 23.8783 18.0651 23.9292ZM18.0651 25.8044C17.8941 25.8916 17.8285 26.0064 17.8285 26.2184C17.8285 26.4305 17.8941 26.5453 18.0651 26.6325C18.1638 26.6828 18.3291 26.6871 20.1568 26.6871C21.9845 26.6871 22.1499 26.6828 22.2486 26.6325C22.4196 26.5453 22.4852 26.4305 22.4852 26.2184C22.4852 26.0064 22.4196 25.8916 22.2486 25.8044C22.1499 25.7541 21.9845 25.7497 20.1568 25.7497C18.3291 25.7497 18.1638 25.7541 18.0651 25.8044Z" fill="#82859E"/>
<path d="M42.1248 26V16.692H44.9718C46.3931 16.692 47.5328 17.121 48.3908 17.979C49.2574 18.837 49.6908 19.9593 49.6908 21.346C49.6908 22.7413 49.2574 23.868 48.3908 24.726C47.5328 25.5753 46.3931 26 44.9718 26H42.1248ZM43.3208 17.836V24.856H44.9718C46.0551 24.856 46.9088 24.5483 47.5328 23.933C48.1568 23.309 48.4688 22.4467 48.4688 21.346C48.4688 20.254 48.1568 19.396 47.5328 18.772C46.9088 18.148 46.0551 17.836 44.9718 17.836H43.3208ZM50.3506 22.815C50.3506 21.8357 50.6583 21.0253 51.2736 20.384C51.8976 19.7427 52.682 19.422 53.6266 19.422C54.5713 19.422 55.3513 19.7427 55.9666 20.384C56.5906 21.0253 56.9026 21.8357 56.9026 22.815C56.9026 23.803 56.5906 24.6133 55.9666 25.246C55.3513 25.8873 54.5713 26.208 53.6266 26.208C52.682 26.208 51.8976 25.8873 51.2736 25.246C50.6583 24.6047 50.3506 23.7943 50.3506 22.815ZM51.5466 22.815C51.5466 23.4997 51.746 24.0543 52.1446 24.479C52.5433 24.9037 53.0373 25.116 53.6266 25.116C54.216 25.116 54.71 24.9037 55.1086 24.479C55.5073 24.0543 55.7066 23.4997 55.7066 22.815C55.7066 22.139 55.5073 21.5887 55.1086 21.164C54.7013 20.7307 54.2073 20.514 53.6266 20.514C53.046 20.514 52.552 20.7307 52.1446 21.164C51.746 21.5887 51.5466 22.139 51.5466 22.815ZM60.901 26.208C59.9564 26.208 59.172 25.8873 58.548 25.246C57.9327 24.5873 57.625 23.777 57.625 22.815C57.625 21.8357 57.9327 21.0253 58.548 20.384C59.172 19.7427 59.9564 19.422 60.901 19.422C61.551 19.422 62.1187 19.5867 62.604 19.916C63.0894 20.2367 63.4534 20.683 63.696 21.255L62.604 21.71C62.266 20.9127 61.6724 20.514 60.823 20.514C60.277 20.514 59.8047 20.735 59.406 21.177C59.016 21.619 58.821 22.165 58.821 22.815C58.821 23.465 59.016 24.011 59.406 24.453C59.8047 24.895 60.277 25.116 60.823 25.116C61.6984 25.116 62.3137 24.7173 62.669 23.92L63.735 24.375C63.501 24.947 63.1327 25.3977 62.63 25.727C62.136 26.0477 61.5597 26.208 60.901 26.208ZM69.656 24.232C69.656 24.7867 69.4134 25.2547 68.928 25.636C68.4427 26.0173 67.8317 26.208 67.095 26.208C66.4537 26.208 65.8904 26.0433 65.405 25.714C64.9197 25.376 64.573 24.934 64.365 24.388L65.431 23.933C65.587 24.3143 65.8124 24.6133 66.107 24.83C66.4104 25.038 66.7397 25.142 67.095 25.142C67.4764 25.142 67.7927 25.0597 68.044 24.895C68.304 24.7303 68.434 24.5353 68.434 24.31C68.434 23.9027 68.122 23.6037 67.498 23.413L66.406 23.14C65.1667 22.828 64.547 22.23 64.547 21.346C64.547 20.7653 64.781 20.3017 65.249 19.955C65.7257 19.5997 66.3324 19.422 67.069 19.422C67.6324 19.422 68.1394 19.5563 68.59 19.825C69.0494 20.0937 69.37 20.4533 69.552 20.904L68.486 21.346C68.3647 21.0773 68.1654 20.8693 67.888 20.722C67.6194 20.566 67.316 20.488 66.978 20.488C66.666 20.488 66.3844 20.566 66.133 20.722C65.8904 20.878 65.769 21.0687 65.769 21.294C65.769 21.658 66.1114 21.918 66.796 22.074L67.758 22.321C69.0234 22.633 69.656 23.27 69.656 24.232Z" fill="#82859E"/>
</svg>
