<svg width="221" height="43" viewBox="0 0 221 43" fill="none" xmlns="http://www.w3.org/2000/svg">
<path fill-rule="evenodd" clip-rule="evenodd" d="M29.9529 14.0451C29.2944 14.3909 27.7326 15.2066 21.3883 18.5184C18.0875 20.2415 15.3271 21.6857 15.254 21.7277C14.944 21.906 14.911 22.3527 15.1924 22.5628C15.2366 22.5958 16.5152 23.0474 18.0336 23.5664L20.7944 24.5099L20.8101 26.6487C20.8243 28.5915 20.8306 28.7965 20.8793 28.8854C21.0182 29.1392 21.2942 29.2369 21.5382 29.1188C21.6605 29.0596 21.8053 28.8752 22.9064 27.3769C23.5838 26.4552 24.1529 25.6953 24.1712 25.6883C24.1895 25.6813 25.1955 26.0145 26.4066 26.4287C28.3581 27.0961 28.6239 27.1796 28.7415 27.1622C28.8887 27.1406 29.0396 27.0305 29.1108 26.8928C29.1566 26.8043 31 14.5204 31 14.3039C31 14.0553 30.7599 13.8303 30.4956 13.8313C30.3882 13.8317 30.273 13.8771 29.9529 14.0451ZM29.0144 20.8989C28.6086 23.6388 28.2669 25.904 28.2551 25.9326C28.2366 25.9777 27.8334 25.8481 25.2413 24.9637C23.5954 24.4021 22.2521 23.9341 22.2562 23.9237C22.2704 23.8872 29.7317 15.8966 29.7419 15.9069C29.7476 15.9126 29.4203 18.159 29.0144 20.8989ZM24.6266 19.8906L21.1862 23.5801L20.7559 23.4298C20.5192 23.3472 19.5269 23.0072 18.5507 22.6743L16.7759 22.0691L16.941 21.9841C17.0318 21.9373 19.5676 20.6128 22.5761 19.0407C25.5846 17.4685 28.0509 16.1865 28.0565 16.1917C28.0623 16.1969 26.5188 17.8614 24.6266 19.8906ZM23.1487 25.3189C23.1606 25.3291 21.8746 27.084 21.8552 27.084C21.8477 27.084 21.8416 26.585 21.8416 25.9751V24.8662L22.4901 25.0883C22.8469 25.2105 23.1432 25.3143 23.1487 25.3189Z" fill="#82859E"/>
<path d="M51.37 16.692V17.836H47.132V20.787H50.954V21.905H47.132V24.856H51.37V26H45.936V16.692H51.37ZM55.6759 22.763L57.9509 26H56.5469L54.9739 23.647L53.4269 26H52.0229L54.2719 22.763L52.0749 19.63H53.4269L54.9999 21.879L56.4949 19.63H57.8989L55.6759 22.763ZM61.3008 26.104C60.7808 26.104 60.3474 25.9437 60.0008 25.623C59.6628 25.3023 59.4894 24.856 59.4808 24.284V20.722H58.3628V19.63H59.4808V17.68H60.6768V19.63H62.2368V20.722H60.6768V23.894C60.6768 24.3187 60.7591 24.609 60.9238 24.765C61.0884 24.9123 61.2748 24.986 61.4828 24.986C61.5781 24.986 61.6691 24.9773 61.7558 24.96C61.8511 24.934 61.9378 24.9037 62.0158 24.869L62.3928 25.935C62.0808 26.0477 61.7168 26.104 61.3008 26.104ZM64.5705 26H63.3745V19.63H64.5185V20.67H64.5705C64.6918 20.332 64.9388 20.046 65.3115 19.812C65.6928 19.5693 66.0655 19.448 66.4295 19.448C66.7762 19.448 67.0708 19.5 67.3135 19.604L66.9495 20.761C66.8022 20.7003 66.5682 20.67 66.2475 20.67C65.7968 20.67 65.4025 20.852 65.0645 21.216C64.7352 21.58 64.5705 22.0047 64.5705 22.49V26ZM68.7142 24.05C68.7142 24.362 68.8442 24.622 69.1042 24.83C69.3729 25.038 69.6849 25.142 70.0402 25.142C70.5429 25.142 70.9892 24.9557 71.3792 24.583C71.7779 24.2103 71.9772 23.7727 71.9772 23.27C71.6046 22.9753 71.0846 22.828 70.4172 22.828C69.9319 22.828 69.5246 22.945 69.1952 23.179C68.8746 23.413 68.7142 23.7033 68.7142 24.05ZM70.2612 19.422C71.1452 19.422 71.8429 19.6603 72.3542 20.137C72.8656 20.605 73.1212 21.2507 73.1212 22.074V26H71.9772V25.116H71.9252C71.4312 25.844 70.7726 26.208 69.9492 26.208C69.2472 26.208 68.6579 26 68.1812 25.584C67.7132 25.168 67.4792 24.648 67.4792 24.024C67.4792 23.3653 67.7262 22.841 68.2202 22.451C68.7229 22.061 69.3902 21.866 70.2222 21.866C70.9329 21.866 71.5179 21.996 71.9772 22.256V21.983C71.9772 21.567 71.8126 21.216 71.4832 20.93C71.1539 20.6353 70.7682 20.488 70.3262 20.488C69.6589 20.488 69.1302 20.7697 68.7402 21.333L67.6872 20.67C68.2679 19.838 69.1259 19.422 70.2612 19.422Z" fill="#82859E"/>
</svg>
