<svg width="221" height="43" viewBox="0 0 221 43" fill="none" xmlns="http://www.w3.org/2000/svg">
<path fill-rule="evenodd" clip-rule="evenodd" d="M22.0907 13.5449C20.2506 13.769 18.6226 14.5554 17.3366 15.8414C16.1133 17.0647 15.3506 18.5771 15.0701 20.336C14.9917 20.8272 14.9761 21.8382 15.0384 22.3776C15.1881 23.6723 15.6032 24.8307 16.2944 25.8823C17.4078 27.5764 19.1151 28.7895 21.0589 29.2679C21.7094 29.4279 22.0856 29.4775 22.7942 29.4966C23.925 29.527 24.914 29.3561 25.9313 28.9545C28.3339 28.006 30.1385 25.9514 30.7605 23.4563C30.9452 22.7155 30.9851 22.3676 30.9851 21.5021C30.9851 20.624 30.9446 20.2798 30.7509 19.5147C30.5982 18.9117 30.4593 18.5368 30.1722 17.9535C29.0944 15.763 27.0754 14.1912 24.6701 13.6702C23.9079 13.5051 22.8423 13.4533 22.0907 13.5449ZM24.0415 14.7C27.1507 15.1883 29.5299 17.7065 29.8435 20.8411C30.0453 22.8577 29.317 24.8932 27.8739 26.346C26.1499 28.0815 23.655 28.7687 21.2798 28.1623C19.3557 27.671 17.693 26.3125 16.8212 24.5193C15.8829 22.5894 15.8829 20.4149 16.8212 18.485C17.8531 16.3624 19.9134 14.9208 22.2939 14.6555C22.6471 14.6161 23.6741 14.6423 24.0415 14.7ZM22.5119 17.4995C21.6542 17.6206 21.0295 18.0611 20.8551 18.6678C20.7306 19.101 20.9641 19.4516 21.4055 19.4943C21.609 19.5139 21.7144 19.4474 21.9259 19.1659C22.1486 18.8695 22.317 18.7583 22.6116 18.7126C22.9213 18.6647 23.2112 18.7035 23.444 18.824C23.6068 18.9083 23.6487 18.9486 23.7258 19.0948C23.804 19.2433 23.8142 19.291 23.8007 19.446C23.7706 19.7914 23.6139 20.0022 23.06 20.4427C22.602 20.8068 22.439 21.0151 22.2893 21.4275C22.1365 21.8484 22.1272 22.5244 22.2716 22.7195C22.3978 22.8902 22.7306 22.9548 23.0324 22.867C23.3064 22.7874 23.3484 22.7206 23.3752 22.3227C23.4017 21.93 23.4191 21.8478 23.5163 21.6585C23.6111 21.4739 23.7341 21.3421 24.0797 21.0544C24.5787 20.6391 24.8676 20.2631 25.0303 19.8173C25.4003 18.8034 24.8344 17.873 23.6677 17.577C23.3421 17.4944 22.8035 17.4583 22.5119 17.4995ZM22.4102 23.7088C22.0505 23.8881 21.884 24.2868 21.9979 24.6965C22.0446 24.8647 22.2771 25.1073 22.4717 25.191C22.9811 25.4102 23.5665 25.0054 23.5665 24.4338C23.5665 23.8404 22.9375 23.4461 22.4102 23.7088Z" fill="#82859E"/>
<path d="M47.1172 26H45.9212V16.692H47.1172V20.683H51.7712V16.692H52.9672V26H51.7712V21.801H47.1172V26ZM57.4853 26.208C56.5493 26.208 55.7779 25.8873 55.1713 25.246C54.5646 24.6047 54.2613 23.7943 54.2613 22.815C54.2613 21.8443 54.5559 21.0383 55.1453 20.397C55.7346 19.747 56.4886 19.422 57.4073 19.422C58.3519 19.422 59.1016 19.7297 59.6563 20.345C60.2196 20.9517 60.5013 21.8053 60.5013 22.906L60.4883 23.036H55.4833C55.5006 23.66 55.7086 24.1627 56.1073 24.544C56.5059 24.9253 56.9826 25.116 57.5373 25.116C58.2999 25.116 58.8979 24.7347 59.3313 23.972L60.3973 24.492C60.1113 25.0293 59.7126 25.4497 59.2013 25.753C58.6986 26.0563 58.1266 26.208 57.4853 26.208ZM55.5743 22.048H59.2273C59.1926 21.606 59.0106 21.242 58.6813 20.956C58.3606 20.6613 57.9273 20.514 57.3813 20.514C56.9306 20.514 56.5406 20.6527 56.2113 20.93C55.8906 21.2073 55.6783 21.58 55.5743 22.048ZM62.791 16.692V26H61.595V16.692H62.791ZM67.3683 25.116C67.9403 25.116 68.4213 24.8993 68.8113 24.466C69.2013 24.0413 69.3963 23.491 69.3963 22.815C69.3963 22.1477 69.2013 21.5973 68.8113 21.164C68.4213 20.7307 67.9403 20.514 67.3683 20.514C66.7877 20.514 66.3023 20.7307 65.9123 21.164C65.531 21.5973 65.3403 22.1477 65.3403 22.815C65.3403 23.491 65.531 24.0457 65.9123 24.479C66.3023 24.9037 66.7877 25.116 67.3683 25.116ZM67.5633 26.208C67.0953 26.208 66.6663 26.1083 66.2763 25.909C65.895 25.7097 65.6003 25.4453 65.3923 25.116H65.3403L65.3923 26V28.808H64.1963V19.63H65.3403V20.514H65.3923C65.6003 20.1847 65.895 19.9203 66.2763 19.721C66.6663 19.5217 67.0953 19.422 67.5633 19.422C68.404 19.422 69.1147 19.7513 69.6953 20.41C70.2933 21.0773 70.5923 21.879 70.5923 22.815C70.5923 23.7597 70.2933 24.5613 69.6953 25.22C69.1147 25.8787 68.404 26.208 67.5633 26.208Z" fill="#82859E"/>
</svg>
