<svg width="221" height="37" viewBox="0 0 221 37" fill="none" xmlns="http://www.w3.org/2000/svg">
<rect width="221" height="37" rx="12" fill="#272831"/>
<path fill-rule="evenodd" clip-rule="evenodd" d="M30.9886 10.5462C29.2851 10.8155 27.8777 12.0913 27.4566 13.7477C27.3148 14.3056 27.2851 14.9931 27.3785 15.5533C27.6794 17.357 29.1319 18.8094 30.9355 19.1103C31.2877 19.169 31.9666 19.1774 32.2888 19.127C34.2313 18.8228 35.7172 17.2968 35.9617 15.3549C36.04 14.7327 35.9459 13.9076 35.7324 13.343C35.4411 12.5732 34.9024 11.8541 34.2418 11.3534C33.9176 11.1077 33.2644 10.7796 32.8801 10.6694C32.2949 10.5016 31.5696 10.4543 30.9886 10.5462ZM32.3235 11.5745C34.436 12.0206 35.5805 14.3014 34.664 16.2387C34.4793 16.6292 34.3057 16.8773 34.008 17.1764C33.5792 17.6072 33.0528 17.9066 32.4403 18.0679C32.1987 18.1315 32.0914 18.1411 31.6452 18.1391C31.1938 18.1372 31.0918 18.1268 30.8286 18.0563C30.2318 17.8963 29.7043 17.5879 29.2824 17.1522C28.68 16.5302 28.3776 15.829 28.3408 14.9687C28.2999 14.0146 28.6254 13.1753 29.2996 12.496C29.8094 11.9823 30.4316 11.6606 31.1398 11.5446C31.4614 11.4919 31.9962 11.5054 32.3235 11.5745ZM25.2988 12.6991C24.5182 12.9351 23.8685 13.3347 23.2876 13.9359C22.6666 14.5787 22.2719 15.3199 22.075 16.213C22.014 16.4894 22.006 16.652 21.9841 18.0481C21.9578 19.7307 21.9461 19.8451 21.7385 20.4649C21.5135 21.1363 21.1964 21.6313 20.5929 22.253C20.0517 22.8105 20.0005 22.905 20 23.3472C19.9997 23.613 20.0093 23.6639 20.0916 23.8314C20.2086 24.0698 20.4188 24.28 20.6569 24.3967L20.8438 24.4883L22.5193 24.4972L24.1949 24.506L24.2485 24.6988C24.3126 24.9293 24.4829 25.2774 24.6293 25.4767C24.7826 25.6857 25.1334 26.0069 25.3558 26.142C25.8015 26.4127 26.243 26.5223 26.7821 26.4963C27.8227 26.4459 28.7121 25.7642 29.0359 24.7688L29.1214 24.506L30.7819 24.4972L32.4424 24.4883L32.6369 24.3985C33.08 24.1938 33.3752 23.6922 33.3215 23.2352C33.2789 22.8732 33.1994 22.7388 32.7869 22.3313C32.361 21.9106 32.1318 21.6192 31.9013 21.2057C31.8151 21.051 31.7069 20.8788 31.6609 20.8232C31.4485 20.5663 31.0043 20.636 30.8625 20.9484C30.77 21.1522 30.7846 21.2518 30.9556 21.5805C31.2037 22.0577 31.4762 22.4272 31.9031 22.8657C32.3203 23.2943 32.3781 23.3979 32.2412 23.4712C32.2002 23.4931 30.4012 23.5035 26.6451 23.5035C21.1512 23.5035 21.109 23.5031 21.047 23.441C21.0126 23.4066 20.9845 23.3582 20.9845 23.3334C20.9845 23.3087 21.1198 23.1575 21.2851 22.9974C22.1059 22.203 22.6381 21.241 22.8807 20.1137C22.9594 19.748 22.9627 19.6891 22.986 18.2045C23.0117 16.5707 23.0194 16.4856 23.1859 15.9895C23.4339 15.2509 23.9557 14.5633 24.5831 14.1487C24.9409 13.9122 25.1216 13.826 25.5625 13.6813C26.0505 13.5213 26.1741 13.4073 26.1741 13.1174C26.1741 12.8374 25.956 12.6234 25.6739 12.6266C25.5965 12.6275 25.4277 12.6601 25.2988 12.6991ZM30.7704 13.2258C30.5912 13.3174 30.5144 13.4274 30.496 13.6191C30.4844 13.7402 30.4961 13.8015 30.5489 13.8955C30.6542 14.0828 30.7812 14.1523 31.0608 14.176L31.3013 14.1963L31.302 15.2469C31.3024 15.8247 31.3156 16.3526 31.3312 16.42C31.4417 16.8967 32.0364 16.989 32.261 16.5644L32.333 16.4282V15V13.5717L32.261 13.4356C32.2117 13.3425 32.1459 13.2767 32.0528 13.2275C31.927 13.1609 31.8785 13.1555 31.4124 13.1555C30.9511 13.1555 30.8964 13.1615 30.7704 13.2258ZM28.0499 24.5199C28.0499 24.5953 27.8789 24.8634 27.7277 25.025C27.5025 25.2658 27.2047 25.4232 26.8677 25.4796C26.445 25.5503 25.9404 25.3888 25.6256 25.082C25.472 24.9323 25.2684 24.6256 25.2678 24.543C25.2676 24.5124 25.5664 24.504 26.6587 24.504C27.4239 24.504 28.0499 24.5112 28.0499 24.5199Z" fill="white"/>
<path d="M56.151 23H50.925V13.692H52.121V21.856H56.151V23ZM58.0626 21.05C58.0626 21.362 58.1926 21.622 58.4526 21.83C58.7213 22.038 59.0333 22.142 59.3886 22.142C59.8913 22.142 60.3376 21.9557 60.7276 21.583C61.1263 21.2103 61.3256 20.7727 61.3256 20.27C60.953 19.9753 60.433 19.828 59.7656 19.828C59.2803 19.828 58.873 19.945 58.5436 20.179C58.223 20.413 58.0626 20.7033 58.0626 21.05ZM59.6096 16.422C60.4936 16.422 61.1913 16.6603 61.7026 17.137C62.214 17.605 62.4696 18.2507 62.4696 19.074V23H61.3256V22.116H61.2736C60.7796 22.844 60.121 23.208 59.2976 23.208C58.5956 23.208 58.0063 23 57.5296 22.584C57.0616 22.168 56.8276 21.648 56.8276 21.024C56.8276 20.3653 57.0746 19.841 57.5686 19.451C58.0713 19.061 58.7386 18.866 59.5706 18.866C60.2813 18.866 60.8663 18.996 61.3256 19.256V18.983C61.3256 18.567 61.161 18.216 60.8316 17.93C60.5023 17.6353 60.1166 17.488 59.6746 17.488C59.0073 17.488 58.4786 17.7697 58.0886 18.333L57.0356 17.67C57.6163 16.838 58.4743 16.422 59.6096 16.422ZM68.6301 21.232C68.6301 21.7867 68.3874 22.2547 67.9021 22.636C67.4168 23.0173 66.8058 23.208 66.0691 23.208C65.4278 23.208 64.8644 23.0433 64.3791 22.714C63.8938 22.376 63.5471 21.934 63.3391 21.388L64.4051 20.933C64.5611 21.3143 64.7864 21.6133 65.0811 21.83C65.3844 22.038 65.7138 22.142 66.0691 22.142C66.4504 22.142 66.7668 22.0597 67.0181 21.895C67.2781 21.7303 67.4081 21.5353 67.4081 21.31C67.4081 20.9027 67.0961 20.6037 66.4721 20.413L65.3801 20.14C64.1408 19.828 63.5211 19.23 63.5211 18.346C63.5211 17.7653 63.7551 17.3017 64.2231 16.955C64.6998 16.5997 65.3064 16.422 66.0431 16.422C66.6064 16.422 67.1134 16.5563 67.5641 16.825C68.0234 17.0937 68.3441 17.4533 68.5261 17.904L67.4601 18.346C67.3388 18.0773 67.1394 17.8693 66.8621 17.722C66.5934 17.566 66.2901 17.488 65.9521 17.488C65.6401 17.488 65.3584 17.566 65.1071 17.722C64.8644 17.878 64.7431 18.0687 64.7431 18.294C64.7431 18.658 65.0854 18.918 65.7701 19.074L66.7321 19.321C67.9974 19.633 68.6301 20.27 68.6301 21.232ZM72.1296 23.104C71.6096 23.104 71.1763 22.9437 70.8296 22.623C70.4916 22.3023 70.3183 21.856 70.3096 21.284V17.722H69.1916V16.63H70.3096V14.68H71.5056V16.63H73.0656V17.722H71.5056V20.894C71.5056 21.3187 71.588 21.609 71.7526 21.765C71.9173 21.9123 72.1036 21.986 72.3116 21.986C72.407 21.986 72.498 21.9773 72.5846 21.96C72.68 21.934 72.7666 21.9037 72.8446 21.869L73.2216 22.935C72.9096 23.0477 72.5456 23.104 72.1296 23.104ZM77.0598 16.63H78.2038V17.514H78.2558C78.4378 17.202 78.7151 16.942 79.0878 16.734C79.4691 16.526 79.8635 16.422 80.2708 16.422C81.0508 16.422 81.6488 16.6473 82.0648 17.098C82.4895 17.54 82.7018 18.1727 82.7018 18.996V23H81.5058V19.074C81.4798 18.034 80.9555 17.514 79.9328 17.514C79.4561 17.514 79.0575 17.709 78.7368 18.099C78.4161 18.4803 78.2558 18.9397 78.2558 19.477V23H77.0598V16.63ZM83.7417 19.815C83.7417 18.8357 84.0494 18.0253 84.6647 17.384C85.2887 16.7427 86.073 16.422 87.0177 16.422C87.9624 16.422 88.7424 16.7427 89.3577 17.384C89.9817 18.0253 90.2937 18.8357 90.2937 19.815C90.2937 20.803 89.9817 21.6133 89.3577 22.246C88.7424 22.8873 87.9624 23.208 87.0177 23.208C86.073 23.208 85.2887 22.8873 84.6647 22.246C84.0494 21.6047 83.7417 20.7943 83.7417 19.815ZM84.9377 19.815C84.9377 20.4997 85.137 21.0543 85.5357 21.479C85.9344 21.9037 86.4284 22.116 87.0177 22.116C87.607 22.116 88.101 21.9037 88.4997 21.479C88.8984 21.0543 89.0977 20.4997 89.0977 19.815C89.0977 19.139 88.8984 18.5887 88.4997 18.164C88.0924 17.7307 87.5984 17.514 87.0177 17.514C86.437 17.514 85.943 17.7307 85.5357 18.164C85.137 18.5887 84.9377 19.139 84.9377 19.815ZM93.7117 23.104C93.1917 23.104 92.7583 22.9437 92.4117 22.623C92.0737 22.3023 91.9003 21.856 91.8917 21.284V17.722H90.7737V16.63H91.8917V14.68H93.0877V16.63H94.6477V17.722H93.0877V20.894C93.0877 21.3187 93.17 21.609 93.3347 21.765C93.4993 21.9123 93.6857 21.986 93.8937 21.986C93.989 21.986 94.08 21.9773 94.1667 21.96C94.262 21.934 94.3487 21.9037 94.4267 21.869L94.8037 22.935C94.4917 23.0477 94.1277 23.104 93.7117 23.104ZM97.3958 14.433C97.3958 14.667 97.3135 14.8663 97.1488 15.031C96.9842 15.1957 96.7848 15.278 96.5508 15.278C96.3168 15.278 96.1175 15.1957 95.9528 15.031C95.7882 14.8663 95.7058 14.667 95.7058 14.433C95.7058 14.199 95.7882 13.9997 95.9528 13.835C96.1175 13.6703 96.3168 13.588 96.5508 13.588C96.7848 13.588 96.9842 13.6703 97.1488 13.835C97.3135 13.9997 97.3958 14.199 97.3958 14.433ZM97.1488 16.63V23H95.9528V16.63H97.1488ZM104.984 14.433C104.984 14.667 104.902 14.8663 104.737 15.031C104.573 15.1957 104.373 15.278 104.139 15.278C103.905 15.278 103.706 15.1957 103.541 15.031C103.377 14.8663 103.294 14.667 103.294 14.433C103.294 14.199 103.377 13.9997 103.541 13.835C103.706 13.6703 103.905 13.588 104.139 13.588C104.373 13.588 104.573 13.6703 104.737 13.835C104.902 13.9997 104.984 14.199 104.984 14.433ZM100.681 17.722V23H99.4853V17.722H98.2893V16.63H99.4853V15.707C99.4853 15.395 99.5373 15.109 99.6413 14.849C99.754 14.589 99.9056 14.368 100.096 14.186C100.287 13.9953 100.512 13.848 100.772 13.744C101.041 13.64 101.331 13.588 101.643 13.588C102.077 13.588 102.432 13.6617 102.709 13.809L102.384 14.862C102.176 14.758 101.942 14.706 101.682 14.706C101.388 14.706 101.145 14.81 100.954 15.018C100.772 15.2173 100.681 15.486 100.681 15.824V16.63H104.737V23H103.541V17.722H100.681ZM109.146 23.208C108.201 23.208 107.417 22.8873 106.793 22.246C106.177 21.5873 105.87 20.777 105.87 19.815C105.87 18.8357 106.177 18.0253 106.793 17.384C107.417 16.7427 108.201 16.422 109.146 16.422C109.796 16.422 110.363 16.5867 110.849 16.916C111.334 17.2367 111.698 17.683 111.941 18.255L110.849 18.71C110.511 17.9127 109.917 17.514 109.068 17.514C108.522 17.514 108.049 17.735 107.651 18.177C107.261 18.619 107.066 19.165 107.066 19.815C107.066 20.465 107.261 21.011 107.651 21.453C108.049 21.895 108.522 22.116 109.068 22.116C109.943 22.116 110.558 21.7173 110.914 20.92L111.98 21.375C111.746 21.947 111.377 22.3977 110.875 22.727C110.381 23.0477 109.804 23.208 109.146 23.208ZM113.833 21.05C113.833 21.362 113.963 21.622 114.223 21.83C114.492 22.038 114.804 22.142 115.159 22.142C115.662 22.142 116.108 21.9557 116.498 21.583C116.897 21.2103 117.096 20.7727 117.096 20.27C116.723 19.9753 116.203 19.828 115.536 19.828C115.051 19.828 114.643 19.945 114.314 20.179C113.993 20.413 113.833 20.7033 113.833 21.05ZM115.38 16.422C116.264 16.422 116.962 16.6603 117.473 17.137C117.984 17.605 118.24 18.2507 118.24 19.074V23H117.096V22.116H117.044C116.55 22.844 115.891 23.208 115.068 23.208C114.366 23.208 113.777 23 113.3 22.584C112.832 22.168 112.598 21.648 112.598 21.024C112.598 20.3653 112.845 19.841 113.339 19.451C113.842 19.061 114.509 18.866 115.341 18.866C116.052 18.866 116.637 18.996 117.096 19.256V18.983C117.096 18.567 116.931 18.216 116.602 17.93C116.273 17.6353 115.887 17.488 115.445 17.488C114.778 17.488 114.249 17.7697 113.859 18.333L112.806 17.67C113.387 16.838 114.245 16.422 115.38 16.422ZM121.984 23.104C121.464 23.104 121.031 22.9437 120.684 22.623C120.346 22.3023 120.173 21.856 120.164 21.284V17.722H119.046V16.63H120.164V14.68H121.36V16.63H122.92V17.722H121.36V20.894C121.36 21.3187 121.442 21.609 121.607 21.765C121.772 21.9123 121.958 21.986 122.166 21.986C122.261 21.986 122.352 21.9773 122.439 21.96C122.534 21.934 122.621 21.9037 122.699 21.869L123.076 22.935C122.764 23.0477 122.4 23.104 121.984 23.104ZM125.668 14.433C125.668 14.667 125.586 14.8663 125.421 15.031C125.257 15.1957 125.057 15.278 124.823 15.278C124.589 15.278 124.39 15.1957 124.225 15.031C124.061 14.8663 123.978 14.667 123.978 14.433C123.978 14.199 124.061 13.9997 124.225 13.835C124.39 13.6703 124.589 13.588 124.823 13.588C125.057 13.588 125.257 13.6703 125.421 13.835C125.586 13.9997 125.668 14.199 125.668 14.433ZM125.421 16.63V23H124.225V16.63H125.421ZM126.55 19.815C126.55 18.8357 126.858 18.0253 127.473 17.384C128.097 16.7427 128.882 16.422 129.826 16.422C130.771 16.422 131.551 16.7427 132.166 17.384C132.79 18.0253 133.102 18.8357 133.102 19.815C133.102 20.803 132.79 21.6133 132.166 22.246C131.551 22.8873 130.771 23.208 129.826 23.208C128.882 23.208 128.097 22.8873 127.473 22.246C126.858 21.6047 126.55 20.7943 126.55 19.815ZM127.746 19.815C127.746 20.4997 127.946 21.0543 128.344 21.479C128.743 21.9037 129.237 22.116 129.826 22.116C130.416 22.116 130.91 21.9037 131.308 21.479C131.707 21.0543 131.906 20.4997 131.906 19.815C131.906 19.139 131.707 18.5887 131.308 18.164C130.901 17.7307 130.407 17.514 129.826 17.514C129.246 17.514 128.752 17.7307 128.344 18.164C127.946 18.5887 127.746 19.139 127.746 19.815ZM134.062 16.63H135.206V17.514H135.258C135.44 17.202 135.717 16.942 136.09 16.734C136.471 16.526 136.865 16.422 137.273 16.422C138.053 16.422 138.651 16.6473 139.067 17.098C139.491 17.54 139.704 18.1727 139.704 18.996V23H138.508V19.074C138.482 18.034 137.957 17.514 136.935 17.514C136.458 17.514 136.059 17.709 135.739 18.099C135.418 18.4803 135.258 18.9397 135.258 19.477V23H134.062V16.63Z" fill="#BBBDD3"/>
</svg>
