<svg width="221" height="43" viewBox="0 0 221 43" fill="none" xmlns="http://www.w3.org/2000/svg">
<path fill-rule="evenodd" clip-rule="evenodd" d="M25.5539 13.5459C25.1739 13.6858 24.9511 13.9863 24.8912 14.4399C24.8787 14.5345 24.8582 14.6308 24.8456 14.654C24.833 14.6772 24.7299 14.7353 24.6166 14.7831L24.4106 14.87L24.1664 14.7064C23.8678 14.5065 23.768 14.4711 23.5032 14.4715C23.198 14.4719 23.0263 14.5642 22.6731 14.9175C22.3058 15.2847 22.2079 15.4627 22.2049 15.7685C22.2024 16.0249 22.2384 16.125 22.443 16.4314C22.5258 16.5552 22.5935 16.67 22.5935 16.6863C22.5935 16.7027 22.5534 16.8055 22.5044 16.9148L22.4152 17.1135L22.1223 17.1689C21.7116 17.2465 21.4772 17.4016 21.3247 17.6963C21.1884 17.96 21.1965 18.812 21.3379 19.0861C21.4742 19.3503 21.7521 19.5374 22.095 19.596C22.2059 19.615 22.3258 19.6369 22.3616 19.6447C22.4081 19.6548 22.452 19.7217 22.5153 19.8789L22.6039 20.099L22.4592 20.3108C22.2533 20.6121 22.2077 20.7342 22.2062 20.9889C22.2043 21.3039 22.2842 21.4501 22.6716 21.8401C23.0101 22.181 23.1498 22.2667 23.4254 22.3032C23.6491 22.3328 23.8737 22.2601 24.166 22.0635L24.407 21.9013L24.6263 21.9896C24.783 22.0526 24.8497 22.0965 24.8599 22.1429C24.8677 22.1787 24.8896 22.2986 24.9085 22.4093C24.951 22.6578 25.0518 22.86 25.2088 23.0114C25.3945 23.1905 25.5768 23.256 25.9469 23.2766C26.8385 23.3262 27.2322 23.0621 27.3471 22.3374L27.386 22.0916L27.5872 22.0014C27.6979 21.9517 27.8038 21.9111 27.8225 21.9111C27.8412 21.9111 27.9559 21.9789 28.0775 22.0619C28.3751 22.265 28.4781 22.3022 28.7361 22.2997C29.0419 22.2967 29.2199 22.1987 29.5871 21.8315C29.9404 21.4782 30.0326 21.3066 30.0331 21.0014C30.0335 20.7366 29.9981 20.6367 29.7981 20.3382L29.6345 20.094L29.7223 19.8849C29.8191 19.6543 29.8083 19.6613 30.197 19.5811C30.4919 19.5203 30.6963 19.3926 30.8379 19.1807C30.9865 18.9584 31.0092 18.8334 30.9973 18.3028C30.9872 17.8481 30.9836 17.8258 30.8939 17.664C30.727 17.3625 30.4467 17.2001 29.9964 17.1438L29.8196 17.1217L29.727 16.8943L29.6343 16.6669L29.7748 16.4678C29.9882 16.1653 30.0319 16.0512 30.0327 15.7945C30.0337 15.4625 29.9655 15.333 29.5873 14.9487C29.196 14.551 29.0493 14.4709 28.7146 14.4719C28.4555 14.4727 28.3496 14.5126 28.0335 14.7291L27.831 14.8677L27.6066 14.774L27.3823 14.6804L27.3605 14.5059C27.3045 14.058 27.1415 13.7773 26.8406 13.6106C26.6765 13.5198 26.6622 13.5176 26.1728 13.51C25.8055 13.5043 25.6411 13.5138 25.5539 13.5459ZM26.4679 14.3595C26.4883 14.3841 26.5322 14.5564 26.5655 14.7425C26.6619 15.2814 26.6882 15.3178 27.0793 15.4556C27.2169 15.5041 27.424 15.5908 27.5396 15.6483C27.8641 15.8097 27.9324 15.7987 28.3433 15.5184C28.5324 15.3895 28.7055 15.284 28.728 15.284C28.7803 15.284 29.2206 15.7257 29.2206 15.7781C29.2206 15.7998 29.1151 15.9722 28.9862 16.1613C28.7094 16.567 28.6957 16.644 28.8464 16.9426C28.8985 17.0458 28.9849 17.2529 29.0384 17.4028C29.1861 17.8167 29.2181 17.8408 29.7491 17.9378C29.9443 17.9734 30.1232 18.0186 30.1468 18.0382C30.2082 18.0892 30.2072 18.6692 30.1456 18.7309C30.1213 18.7552 29.949 18.7997 29.7627 18.83C29.2332 18.9158 29.1846 18.9503 29.0522 19.3344C29.0112 19.4535 28.9268 19.656 28.8647 19.7845C28.6928 20.1399 28.7022 20.2038 28.9862 20.6066C29.1151 20.7895 29.2206 20.9578 29.2206 20.9805C29.2206 21.038 28.7766 21.4734 28.7179 21.4734C28.6915 21.4734 28.5257 21.3735 28.3494 21.2514C27.9302 20.961 27.8884 20.9555 27.4839 21.1385C27.3129 21.2158 27.1 21.3026 27.0108 21.3313C26.8151 21.3942 26.7089 21.4729 26.6622 21.5896C26.6431 21.6374 26.5993 21.8358 26.5648 22.0303C26.5304 22.2248 26.4941 22.3971 26.4842 22.4132C26.4742 22.4293 26.3118 22.4425 26.1234 22.4425C25.7176 22.4425 25.7521 22.4797 25.6593 21.9423C25.6018 21.6095 25.5893 21.5756 25.4915 21.4855C25.4305 21.4293 25.2945 21.358 25.1697 21.317C25.0509 21.2778 24.8449 21.1915 24.7121 21.1252C24.3572 20.9479 24.297 20.9589 23.8439 21.2831C23.6978 21.3877 23.5504 21.4733 23.5165 21.4734C23.4341 21.4735 23.0311 21.0718 23.0312 20.9897C23.0312 20.9549 23.1168 20.8068 23.2214 20.6607C23.5457 20.2076 23.5566 20.1474 23.3794 19.7925C23.3131 19.6597 23.2339 19.4736 23.2036 19.379C23.1217 19.1237 23.0325 18.9803 22.9244 18.9301C22.8714 18.9055 22.6803 18.8612 22.4997 18.8316C22.3192 18.802 22.1469 18.7648 22.1168 18.7491C22.0698 18.7244 22.0621 18.6723 22.0621 18.3794C22.0621 18.1919 22.0753 18.0304 22.0914 18.0204C22.1075 18.0104 22.2798 17.9742 22.4743 17.9397C23.0216 17.8429 23.0498 17.8232 23.1875 17.4409C23.2277 17.3291 23.3145 17.1197 23.3804 16.9754C23.4462 16.8312 23.5 16.6794 23.5 16.6381C23.5 16.5403 23.4191 16.3881 23.2051 16.0833C23.1095 15.947 23.0312 15.813 23.0312 15.7856C23.0312 15.7251 23.4685 15.284 23.5285 15.284C23.5519 15.284 23.6881 15.3677 23.8312 15.47C24.2983 15.8042 24.3592 15.8151 24.7365 15.6328C24.8731 15.5668 25.0623 15.4876 25.1568 15.4567C25.544 15.3303 25.5747 15.2888 25.6721 14.7612C25.7136 14.5367 25.7625 14.3579 25.7867 14.3426C25.8099 14.3279 25.9643 14.3156 26.1299 14.3154C26.353 14.315 26.4404 14.3264 26.4679 14.3595ZM25.632 16.5038C25.0732 16.6502 24.635 17.0153 24.3758 17.5503C24.2224 17.867 24.1765 18.1058 24.1946 18.4941C24.2178 18.9949 24.3967 19.4004 24.7504 19.7541C25.1042 20.1078 25.5097 20.2867 26.0105 20.31C26.3988 20.328 26.6376 20.2821 26.9543 20.1287C27.9486 19.6471 28.3424 18.5008 27.8548 17.5074C27.6922 17.1762 27.3284 16.8123 26.9971 16.6497C26.5698 16.44 26.0768 16.3873 25.632 16.5038ZM26.5092 17.3346C27.2425 17.5919 27.4714 18.5557 26.9377 19.1396C26.5135 19.6038 25.779 19.6187 25.3324 19.1721C24.7017 18.5414 25.0348 17.4636 25.9155 17.2857C26.0715 17.2541 26.3439 17.2766 26.5092 17.3346ZM19.8834 17.9378C19.7338 18.0318 19.6914 18.1191 19.6287 18.4621C19.5972 18.6339 19.5623 18.7894 19.5511 18.8075C19.5398 18.8258 19.492 18.8503 19.4449 18.8622C19.3977 18.874 19.2562 18.9313 19.1304 18.9894L18.9017 19.095L18.5672 18.8679C18.1826 18.6066 18.0318 18.5544 17.7111 18.5712C17.3678 18.5893 17.2372 18.6669 16.7764 19.1269C16.3245 19.578 16.2469 19.7084 16.2237 20.0549C16.2036 20.3555 16.2654 20.5284 16.5353 20.9269L16.7526 21.2478L16.6879 21.3748C16.6522 21.4446 16.5931 21.5833 16.5566 21.683C16.52 21.7826 16.4807 21.8746 16.4691 21.8874C16.4576 21.9002 16.2877 21.9396 16.0916 21.9749C15.5298 22.0761 15.2752 22.243 15.0943 22.6286C15.0173 22.7927 15.0124 22.833 15.0033 23.382C14.9946 23.907 14.9999 23.9786 15.0587 24.1357C15.2115 24.5442 15.4886 24.7545 16.0019 24.8515C16.4971 24.9451 16.4595 24.9195 16.5984 25.2559C16.6659 25.4192 16.7276 25.5677 16.7355 25.5859C16.7434 25.604 16.6698 25.7305 16.5718 25.867C16.2724 26.2843 16.2324 26.3837 16.2322 26.7095C16.2321 27.1227 16.3042 27.2581 16.7754 27.7292C17.2465 28.2004 17.3819 28.2725 17.7951 28.2723C18.1209 28.2722 18.2202 28.2321 18.6375 27.9327C18.774 27.8348 18.9006 27.7611 18.9187 27.769C18.9369 27.777 19.0783 27.8353 19.2331 27.8987C19.3878 27.9621 19.5265 28.0252 19.5413 28.0388C19.5561 28.0525 19.5955 28.2161 19.6288 28.4025C19.6621 28.5889 19.7224 28.8138 19.7628 28.9023C19.8581 29.1112 20.0545 29.3052 20.2757 29.4088C20.4482 29.4897 20.4665 29.4916 21.0774 29.4916C21.6855 29.4916 21.7074 29.4894 21.876 29.4103C22.2627 29.2289 22.4252 28.9797 22.5326 28.403C22.5964 28.0609 22.6076 28.0311 22.6835 28.0026C22.7286 27.9857 22.8803 27.9227 23.0206 27.8626L23.2759 27.7534L23.5451 27.9447C23.9468 28.2302 24.0553 28.2722 24.391 28.272C24.7824 28.2718 24.9071 28.2024 25.394 27.7138C25.8547 27.2516 25.9176 27.139 25.9334 26.7488C25.9437 26.4965 25.9373 26.4608 25.8495 26.2799C25.7972 26.1723 25.6772 25.9773 25.5829 25.8465L25.4114 25.6086L25.4901 25.4401C25.5334 25.3474 25.5967 25.1977 25.6308 25.1074C25.6977 24.93 25.6852 24.9371 26.0321 24.8799C26.4582 24.8097 26.5933 24.7106 26.6184 24.4496C26.6315 24.3124 26.623 24.2855 26.5342 24.1844C26.3716 23.9992 26.3041 23.9918 25.7298 24.0955C25.4434 24.1472 25.1915 24.2099 25.1437 24.2412C25.0442 24.3064 25.0015 24.3852 24.9072 24.6776C24.8685 24.7979 24.7681 25.0391 24.6842 25.2135C24.4663 25.6663 24.469 25.6884 24.7986 26.1624C25.1179 26.6216 25.1256 26.6352 25.1256 26.743C25.1256 26.8525 24.5689 27.4309 24.4353 27.4603C24.3278 27.4839 24.2947 27.4665 23.8365 27.1455C23.6201 26.994 23.4232 26.8798 23.3567 26.8673C23.2607 26.8493 23.1895 26.8718 22.8796 27.0182C22.6793 27.1128 22.4296 27.2177 22.3247 27.2514C22.0484 27.34 21.9445 27.4016 21.8886 27.5097C21.8613 27.5624 21.8049 27.7977 21.7631 28.0328C21.6741 28.5338 21.6466 28.6118 21.5427 28.6591C21.4979 28.6796 21.2951 28.6945 21.0621 28.6945C20.5286 28.6945 20.5205 28.6882 20.4354 28.2099C20.2928 27.4088 20.2869 27.3985 19.8965 27.2707C19.7551 27.2244 19.4751 27.11 19.2742 27.0165C18.9777 26.8785 18.8894 26.8502 18.8052 26.866C18.7479 26.8767 18.5128 27.0175 18.28 27.1804C18.0483 27.3426 17.8289 27.4753 17.7925 27.4753C17.7062 27.4753 17.5256 27.3398 17.3073 27.1116C17.0956 26.8901 17.0292 26.7943 17.0292 26.7098C17.0292 26.6747 17.162 26.4563 17.3242 26.2245C17.4871 25.9918 17.6278 25.7567 17.6386 25.6994C17.6544 25.6151 17.626 25.5268 17.488 25.2304C17.3946 25.0295 17.2802 24.7495 17.2339 24.6081C17.1061 24.2177 17.0958 24.2118 16.2946 24.0692C15.8164 23.984 15.8101 23.9759 15.8101 23.4425C15.8101 23.2095 15.825 23.0067 15.8454 22.9619C15.8933 22.8568 15.9713 22.83 16.4961 22.7384C17.0723 22.6377 17.1168 22.608 17.2317 22.2474C17.277 22.1054 17.3915 21.8253 17.4862 21.625C17.6324 21.3157 17.6553 21.2438 17.6373 21.1484C17.6248 21.0815 17.5036 20.8751 17.3373 20.6374C17.1839 20.4181 17.0507 20.2085 17.0412 20.1717C17.0143 20.0661 17.0964 19.9465 17.3975 19.6525C17.6232 19.4322 17.6958 19.379 17.771 19.379C17.8375 19.379 17.9753 19.4561 18.2484 19.646C18.4596 19.7928 18.6576 19.9265 18.6884 19.943C18.8061 20.006 18.9784 19.9738 19.2629 19.8357C19.4184 19.7602 19.6723 19.6539 19.827 19.5995C20.3022 19.4325 20.2956 19.4422 20.4187 18.7317C20.4924 18.3063 20.4964 18.2455 20.4572 18.1534C20.3541 17.9113 20.086 17.8106 19.8834 17.9378ZM20.7198 20.7243C19.5804 20.8808 18.6452 21.7609 18.4159 22.8926C18.3398 23.2682 18.3697 23.8733 18.4817 24.2243C18.7557 25.0833 19.4218 25.7493 20.2803 26.0228C20.6006 26.1248 21.2007 26.1624 21.5469 26.1021C22.39 25.9553 23.1137 25.416 23.5006 24.6463C23.6893 24.2709 23.781 23.9279 23.7902 23.5628C23.7981 23.251 23.7538 23.1572 23.5514 23.0566C23.3079 22.9357 23.0206 23.1116 22.9864 23.4027C22.904 24.1045 22.7844 24.3863 22.413 24.7535C22.1358 25.0275 21.8955 25.1666 21.5433 25.2567C20.8893 25.4239 20.2332 25.241 19.7484 24.7562C19.2636 24.2714 19.0807 23.6153 19.2479 22.9613C19.338 22.6091 19.4771 22.3687 19.7511 22.0915C20.1182 21.7202 20.4 21.6006 21.1019 21.5181C21.3929 21.4839 21.5689 21.1966 21.4479 20.9532C21.3335 20.723 21.1498 20.6653 20.7198 20.7243Z" fill="#82859E"/>
<path d="M51.682 23.517C51.682 24.3317 51.383 24.986 50.785 25.48C50.1783 25.9653 49.4417 26.208 48.575 26.208C47.8037 26.208 47.1233 25.9827 46.534 25.532C45.9447 25.0813 45.5373 24.466 45.312 23.686L46.456 23.218C46.534 23.4953 46.6423 23.7467 46.781 23.972C46.9197 24.1973 47.08 24.3923 47.262 24.557C47.4527 24.713 47.6607 24.8387 47.886 24.934C48.1113 25.0207 48.3497 25.064 48.601 25.064C49.147 25.064 49.5933 24.9253 49.94 24.648C50.2867 24.362 50.46 23.985 50.46 23.517C50.46 23.127 50.317 22.7933 50.031 22.516C49.7623 22.2473 49.2597 21.9873 48.523 21.736C47.7777 21.4673 47.314 21.2853 47.132 21.19C46.144 20.6873 45.65 19.9463 45.65 18.967C45.65 18.2823 45.923 17.6973 46.469 17.212C47.0237 16.7267 47.704 16.484 48.51 16.484C49.2207 16.484 49.836 16.666 50.356 17.03C50.876 17.3853 51.2227 17.8317 51.396 18.369L50.278 18.837C50.174 18.4903 49.966 18.2043 49.654 17.979C49.3507 17.745 48.978 17.628 48.536 17.628C48.068 17.628 47.6737 17.758 47.353 18.018C47.0323 18.2607 46.872 18.577 46.872 18.967C46.872 19.2877 46.9977 19.565 47.249 19.799C47.5263 20.033 48.1287 20.3103 49.056 20.631C50.0007 20.9517 50.6723 21.346 51.071 21.814C51.4783 22.2733 51.682 22.841 51.682 23.517ZM55.7735 26.208C54.8375 26.208 54.0662 25.8873 53.4595 25.246C52.8529 24.6047 52.5495 23.7943 52.5495 22.815C52.5495 21.8443 52.8442 21.0383 53.4335 20.397C54.0229 19.747 54.7769 19.422 55.6955 19.422C56.6402 19.422 57.3899 19.7297 57.9445 20.345C58.5079 20.9517 58.7895 21.8053 58.7895 22.906L58.7765 23.036H53.7715C53.7889 23.66 53.9969 24.1627 54.3955 24.544C54.7942 24.9253 55.2709 25.116 55.8255 25.116C56.5882 25.116 57.1862 24.7347 57.6195 23.972L58.6855 24.492C58.3995 25.0293 58.0009 25.4497 57.4895 25.753C56.9869 26.0563 56.4149 26.208 55.7735 26.208ZM53.8625 22.048H57.5155C57.4809 21.606 57.2989 21.242 56.9695 20.956C56.6489 20.6613 56.2155 20.514 55.6695 20.514C55.2189 20.514 54.8289 20.6527 54.4995 20.93C54.1789 21.2073 53.9665 21.58 53.8625 22.048ZM66.3748 26.104C65.8548 26.104 65.4215 25.9437 65.0748 25.623C64.7368 25.3023 64.5635 24.856 64.5548 24.284V20.722H61.5908V23.933C61.5908 24.3057 61.6645 24.5743 61.8118 24.739C61.9678 24.9037 62.1498 24.986 62.3578 24.986C62.5572 24.986 62.7478 24.947 62.9298 24.869L63.3068 25.935C62.9948 26.0477 62.6308 26.104 62.2148 26.104C61.6948 26.104 61.2615 25.9437 60.9148 25.623C60.5768 25.3023 60.4035 24.856 60.3948 24.284V20.722H59.2768V19.63H60.3948V17.68H61.5908V19.63H64.5548V17.68H65.7508V19.63H67.3108V20.722H65.7508V23.894C65.7508 24.3187 65.8332 24.609 65.9978 24.765C66.1625 24.9123 66.3488 24.986 66.5568 24.986C66.6522 24.986 66.7432 24.9773 66.8298 24.96C66.9252 24.934 67.0118 24.9037 67.0898 24.869L67.4668 25.935C67.1548 26.0477 66.7908 26.104 66.3748 26.104ZM70.0631 17.433C70.0631 17.667 69.9808 17.8663 69.8161 18.031C69.6514 18.1957 69.4521 18.278 69.2181 18.278C68.9841 18.278 68.7848 18.1957 68.6201 18.031C68.4554 17.8663 68.3731 17.667 68.3731 17.433C68.3731 17.199 68.4554 16.9997 68.6201 16.835C68.7848 16.6703 68.9841 16.588 69.2181 16.588C69.4521 16.588 69.6514 16.6703 69.8161 16.835C69.9808 16.9997 70.0631 17.199 70.0631 17.433ZM69.8161 19.63V26H68.6201V19.63H69.8161ZM71.3725 19.63H72.5165V20.514H72.5685C72.7505 20.202 73.0279 19.942 73.4005 19.734C73.7819 19.526 74.1762 19.422 74.5835 19.422C75.3635 19.422 75.9615 19.6473 76.3775 20.098C76.8022 20.54 77.0145 21.1727 77.0145 21.996V26H75.8185V22.074C75.7925 21.034 75.2682 20.514 74.2455 20.514C73.7689 20.514 73.3702 20.709 73.0495 21.099C72.7289 21.4803 72.5685 21.9397 72.5685 22.477V26H71.3725V19.63ZM81.215 25.116C81.8043 25.116 82.2853 24.9037 82.658 24.479C83.048 24.0543 83.243 23.4997 83.243 22.815C83.243 22.1477 83.048 21.5973 82.658 21.164C82.2766 20.7307 81.7956 20.514 81.215 20.514C80.643 20.514 80.162 20.7307 79.772 21.164C79.382 21.5973 79.187 22.1477 79.187 22.815C79.187 23.491 79.382 24.0413 79.772 24.466C80.162 24.8993 80.643 25.116 81.215 25.116ZM81.176 29.016C80.8206 29.016 80.487 28.9683 80.175 28.873C79.863 28.7863 79.577 28.6607 79.317 28.496C79.0656 28.3313 78.849 28.1363 78.667 27.911C78.485 27.6857 78.3463 27.4343 78.251 27.157L79.382 26.689C79.512 27.0617 79.7373 27.3607 80.058 27.586C80.3786 27.8113 80.7513 27.924 81.176 27.924C81.826 27.924 82.333 27.729 82.697 27.339C83.061 26.949 83.243 26.4117 83.243 25.727V25.116H83.191C82.9656 25.454 82.658 25.7227 82.268 25.922C81.8866 26.1127 81.4706 26.208 81.02 26.208C80.188 26.208 79.473 25.883 78.875 25.233C78.2856 24.5657 77.991 23.7597 77.991 22.815C77.991 21.8703 78.2856 21.0687 78.875 20.41C79.473 19.7513 80.188 19.422 81.02 19.422C81.4706 19.422 81.8866 19.5217 82.268 19.721C82.658 19.9117 82.9656 20.176 83.191 20.514H83.243V19.63H84.387V25.727C84.387 26.7497 84.0966 27.5513 83.516 28.132C82.9266 28.7213 82.1466 29.016 81.176 29.016ZM90.6567 24.232C90.6567 24.7867 90.414 25.2547 89.9287 25.636C89.4434 26.0173 88.8324 26.208 88.0957 26.208C87.4544 26.208 86.891 26.0433 86.4057 25.714C85.9204 25.376 85.5737 24.934 85.3657 24.388L86.4317 23.933C86.5877 24.3143 86.813 24.6133 87.1077 24.83C87.411 25.038 87.7404 25.142 88.0957 25.142C88.477 25.142 88.7934 25.0597 89.0447 24.895C89.3047 24.7303 89.4347 24.5353 89.4347 24.31C89.4347 23.9027 89.1227 23.6037 88.4987 23.413L87.4067 23.14C86.1674 22.828 85.5477 22.23 85.5477 21.346C85.5477 20.7653 85.7817 20.3017 86.2497 19.955C86.7264 19.5997 87.333 19.422 88.0697 19.422C88.633 19.422 89.14 19.5563 89.5907 19.825C90.05 20.0937 90.3707 20.4533 90.5527 20.904L89.4867 21.346C89.3654 21.0773 89.166 20.8693 88.8887 20.722C88.62 20.566 88.3167 20.488 87.9787 20.488C87.6667 20.488 87.385 20.566 87.1337 20.722C86.891 20.878 86.7697 21.0687 86.7697 21.294C86.7697 21.658 87.112 21.918 87.7967 22.074L88.7587 22.321C90.024 22.633 90.6567 23.27 90.6567 24.232Z" fill="#82859E"/>
</svg>
