<svg width="221" height="43" viewBox="0 0 221 43" fill="none" xmlns="http://www.w3.org/2000/svg">
<rect width="221" height="43" rx="12" fill="white"/>
<path fill-rule="evenodd" clip-rule="evenodd" d="M16.1215 12.5516C15.7452 12.6554 15.378 12.9414 15.1992 13.27C14.9891 13.656 15.0001 13.2842 15.0001 20.0079C15.0001 25.4584 15.0064 26.1882 15.0547 26.3738C15.1551 26.7596 15.3933 27.0768 15.7407 27.2879C16.1208 27.5188 16.026 27.5138 20.0687 27.5145L23.7133 27.5151L23.7529 27.7429C23.9494 28.8715 24.6885 29.8053 25.7341 30.2463C26.2962 30.4834 26.2465 30.4788 28.4134 30.494C30.5049 30.5087 30.4963 30.5093 30.5733 30.3402C30.6011 30.2791 30.6124 29.1891 30.6124 26.545C30.6124 22.4812 30.6164 22.569 30.4032 22.059C30.2062 21.5878 30.0475 21.4077 28.2483 19.6123C27.2938 18.6598 26.4938 17.8805 26.4704 17.8805C26.4377 17.8805 26.428 17.3023 26.428 15.3477C26.428 12.6432 26.4271 12.6294 26.2575 12.5386C26.1468 12.4794 16.3379 12.4919 16.1215 12.5516ZM25.7951 18.732V24.3657L24.6259 23.204C23.5608 22.1457 23.4364 22.0334 23.2282 21.9415C22.9357 21.8125 22.497 21.781 22.1993 21.8676C21.9376 21.9436 21.5895 22.183 21.4264 22.399C21.0648 22.878 21.022 23.5465 21.3195 24.0692C21.3697 24.1573 21.8819 24.7028 22.4752 25.2999C23.5583 26.3898 23.6826 26.5425 23.6845 26.7855L23.6853 26.8822L19.9844 26.8814C16.4762 26.8807 16.2762 26.8773 16.1421 26.8164C15.9569 26.7323 15.7802 26.5524 15.6889 26.3552L15.6154 26.1965V20.0079V13.8192L15.6959 13.6447C15.7402 13.5487 15.8035 13.4399 15.8365 13.4028C15.9306 13.2976 16.148 13.1706 16.2926 13.1365C16.365 13.1194 18.5327 13.1039 21.1096 13.1019L25.7951 13.0984V18.732ZM16.8635 13.729C16.5726 13.8175 16.3336 14.0531 16.2503 14.3334C16.1738 14.5913 16.1715 15.7979 16.2473 15.9445C16.3405 16.1247 16.5816 16.1499 16.7275 15.9947C16.8086 15.9084 16.8113 15.8866 16.8205 15.2318C16.8257 14.861 16.8381 14.521 16.8481 14.4762C16.8816 14.3258 17.0428 14.2939 17.7707 14.2939C18.4138 14.2939 18.4359 14.2916 18.505 14.2148C18.5442 14.1713 18.5863 14.1071 18.5987 14.0722C18.6289 13.9868 18.5393 13.7813 18.4513 13.7342C18.3699 13.6906 17.0044 13.6862 16.8635 13.729ZM20.0811 14.6624C18.9939 14.9016 18.1196 15.7237 17.811 16.7968C17.7046 17.1669 17.6809 17.7793 17.7581 18.1639C18.0671 19.7025 19.4561 20.738 21.0044 20.5838C22.54 20.4309 23.7 19.1466 23.7 17.5992C23.7 16.179 22.7037 14.95 21.3221 14.6661C20.9962 14.5991 20.3771 14.5973 20.0811 14.6624ZM20.4152 16.2982V17.2828H19.9708H19.5264L19.5493 17.059C19.6094 16.4727 19.868 15.8286 20.1729 15.5062C20.2731 15.4003 20.3686 15.3137 20.3851 15.3137C20.4016 15.3137 20.4152 15.7567 20.4152 16.2982ZM21.3358 15.6084C21.6137 15.9892 21.7791 16.4596 21.8722 17.1333L21.8928 17.2828H21.4529H21.0129V16.2958V15.3089L21.1215 15.3862C21.1813 15.4288 21.2777 15.5287 21.3358 15.6084ZM19.2188 15.9026C19.102 16.1813 18.9831 16.6187 18.9548 16.8737C18.9438 16.973 18.927 17.1057 18.9174 17.1685L18.9 17.2828H18.6187H18.3374L18.3611 17.1509C18.4393 16.7156 18.6683 16.2867 19.0087 15.9378C19.1549 15.7879 19.2844 15.6653 19.2964 15.6653C19.3085 15.6653 19.2735 15.7721 19.2188 15.9026ZM22.5184 16.0444C22.7751 16.3512 22.9421 16.6859 23.033 17.0759L23.0813 17.2828H22.7906H22.4999L22.4772 17.0385C22.4417 16.6571 22.2832 16.0528 22.152 15.7989C22.1251 15.7467 22.103 15.6939 22.103 15.6817C22.103 15.6378 22.3822 15.8815 22.5184 16.0444ZM18.9192 18.0827C18.9662 18.4698 19.0811 18.9502 19.1934 19.23C19.3338 19.5796 19.3088 19.5817 18.9892 19.2465C18.6564 18.8976 18.4378 18.4828 18.3572 18.0476L18.3327 17.9157H18.6158H18.8988L18.9192 18.0827ZM20.4152 18.9003C20.4152 19.5079 20.4022 19.8848 20.3813 19.8848C20.3209 19.8848 20.0612 19.5911 19.9403 19.3861C19.7373 19.042 19.5361 18.3607 19.5361 18.0173V17.9157H19.9756H20.4152V18.9003ZM21.8719 18.0651C21.7941 18.6187 21.7117 18.9123 21.5322 19.2744C21.4193 19.5023 21.1931 19.7908 21.0802 19.8513C21.0147 19.8863 21.0129 19.8613 21.0129 18.9015V17.9157H21.4529H21.8928L21.8719 18.0651ZM23.0502 18.0667C22.9671 18.5117 22.6687 19.0431 22.3262 19.3561C22.2179 19.4551 22.1232 19.53 22.1157 19.5225C22.1082 19.515 22.135 19.4346 22.1752 19.3438C22.3033 19.0542 22.4209 18.6118 22.4637 18.2585L22.5052 17.9157H22.7918H23.0785L23.0502 18.0667ZM29.4628 21.705C29.6797 21.9566 29.8392 22.245 29.9351 22.5588C29.9879 22.7313 29.9949 23.1103 30.0056 26.3284L30.0174 29.9062H28.4943C27.6388 29.9062 26.8418 29.89 26.6761 29.8692C26.0495 29.7906 25.5728 29.5518 25.1083 29.0835C24.8693 28.8426 24.755 28.6939 24.6459 28.4821C24.4115 28.027 24.352 27.7848 24.3177 27.1459C24.2702 26.2617 24.2387 26.2028 23.3134 25.2654L22.5979 24.5405L23.2296 23.9095L23.8613 23.2786L25.3644 24.779C26.2342 25.6473 26.8972 26.2822 26.9379 26.286C27.1528 26.306 27.3071 26.1861 27.3071 25.999C27.3071 25.9017 27.2465 25.825 26.8675 25.4419L26.428 24.9977V21.8403V18.683L27.8433 20.0755C28.6217 20.8414 29.3505 21.5746 29.4628 21.705ZM23.0401 22.5566C23.1555 22.6143 23.2879 22.7018 23.3342 22.7512L23.4185 22.8408L22.7881 23.472L22.1577 24.1031L22.0381 23.9894C21.7481 23.7138 21.671 23.2896 21.848 22.9432C22.0793 22.4909 22.5822 22.3278 23.0401 22.5566ZM16.3721 23.9385C16.2146 24.0182 16.1967 24.1086 16.1962 24.8276C16.1954 25.762 16.2685 25.9634 16.693 26.1971C16.8802 26.3002 16.8853 26.3009 17.564 26.314C18.3712 26.3297 18.4962 26.3061 18.5723 26.124C18.6158 26.0198 18.616 25.9868 18.5734 25.8848C18.5002 25.7097 18.3915 25.6867 17.6382 25.6867C16.7699 25.6867 16.8286 25.7442 16.8284 24.8933C16.8281 24.1708 16.8007 24.0226 16.6529 23.9462C16.5294 23.8823 16.4855 23.8811 16.3721 23.9385Z" fill="#32333D"/>
<path d="M49.2924 26H48.0444L44.7684 16.692H46.0944L48.6424 24.245H48.6944L51.3464 16.692H52.6724L49.2924 26ZM54.8473 17.433C54.8473 17.667 54.765 17.8663 54.6003 18.031C54.4357 18.1957 54.2363 18.278 54.0023 18.278C53.7683 18.278 53.569 18.1957 53.4043 18.031C53.2397 17.8663 53.1573 17.667 53.1573 17.433C53.1573 17.199 53.2397 16.9997 53.4043 16.835C53.569 16.6703 53.7683 16.588 54.0023 16.588C54.2363 16.588 54.4357 16.6703 54.6003 16.835C54.765 16.9997 54.8473 17.199 54.8473 17.433ZM54.6003 19.63V26H53.4043V19.63H54.6003ZM61.0318 24.232C61.0318 24.7867 60.7891 25.2547 60.3038 25.636C59.8184 26.0173 59.2074 26.208 58.4708 26.208C57.8294 26.208 57.2661 26.0433 56.7808 25.714C56.2954 25.376 55.9488 24.934 55.7408 24.388L56.8068 23.933C56.9628 24.3143 57.1881 24.6133 57.4828 24.83C57.7861 25.038 58.1154 25.142 58.4708 25.142C58.8521 25.142 59.1684 25.0597 59.4198 24.895C59.6798 24.7303 59.8098 24.5353 59.8098 24.31C59.8098 23.9027 59.4978 23.6037 58.8738 23.413L57.7818 23.14C56.5424 22.828 55.9228 22.23 55.9228 21.346C55.9228 20.7653 56.1568 20.3017 56.6248 19.955C57.1014 19.5997 57.7081 19.422 58.4448 19.422C59.0081 19.422 59.5151 19.5563 59.9658 19.825C60.4251 20.0937 60.7458 20.4533 60.9278 20.904L59.8618 21.346C59.7404 21.0773 59.5411 20.8693 59.2638 20.722C58.9951 20.566 58.6918 20.488 58.3538 20.488C58.0418 20.488 57.7601 20.566 57.5088 20.722C57.2661 20.878 57.1448 21.0687 57.1448 21.294C57.1448 21.658 57.4871 21.918 58.1718 22.074L59.1338 22.321C60.3991 22.633 61.0318 23.27 61.0318 24.232ZM63.0073 24.05C63.0073 24.362 63.1373 24.622 63.3973 24.83C63.6659 25.038 63.9779 25.142 64.3333 25.142C64.8359 25.142 65.2823 24.9557 65.6723 24.583C66.0709 24.2103 66.2703 23.7727 66.2703 23.27C65.8976 22.9753 65.3776 22.828 64.7103 22.828C64.2249 22.828 63.8176 22.945 63.4883 23.179C63.1676 23.413 63.0073 23.7033 63.0073 24.05ZM64.5543 19.422C65.4383 19.422 66.1359 19.6603 66.6473 20.137C67.1586 20.605 67.4143 21.2507 67.4143 22.074V26H66.2703V25.116H66.2183C65.7243 25.844 65.0656 26.208 64.2423 26.208C63.5403 26.208 62.9509 26 62.4743 25.584C62.0063 25.168 61.7723 24.648 61.7723 24.024C61.7723 23.3653 62.0193 22.841 62.5133 22.451C63.0159 22.061 63.6833 21.866 64.5153 21.866C65.2259 21.866 65.8109 21.996 66.2703 22.256V21.983C66.2703 21.567 66.1056 21.216 65.7763 20.93C65.4469 20.6353 65.0613 20.488 64.6193 20.488C63.9519 20.488 63.4233 20.7697 63.0333 21.333L61.9803 20.67C62.5609 19.838 63.4189 19.422 64.5543 19.422Z" fill="#32333D"/>
</svg>
